<?xml version="1.0" standalone="no"?>
<!DOCTYPE svg PUBLIC "-//W3C//DTD SVG 20010904//EN"
        "http://www.w3.org/TR/2001/REC-SVG-20010904/DTD/svg10.dtd">
<svg version="1.0" xmlns="http://www.w3.org/2000/svg"
     width="64.000000pt" height="64.000000pt" viewBox="0 0 64.000000 64.000000"
     preserveAspectRatio="xMidYMid meet">

    <g transform="translate(0.000000,64.000000) scale(0.100000,-0.100000)"
       fill="#2f2f2f" stroke="none">
        <path d="M207 622 c-10 -10 -17 -25 -17 -34 0 -11 -15 -17 -62 -21 -43 -4 -66
-11 -75 -23 -19 -25 -16 -61 6 -76 15 -11 20 -42 35 -216 10 -112 20 -210 23
-218 11 -28 44 -34 203 -34 159 0 192 6 203 34 3 8 13 106 23 218 15 174 20
205 35 216 22 15 25 51 6 76 -9 12 -32 19 -75 23 -50 5 -62 9 -62 23 0 38 -32
50 -132 50 -79 0 -98 -3 -111 -18z m203 -37 c0 -12 -17 -15 -90 -15 -73 0 -90
3 -90 15 0 12 17 15 90 15 73 0 90 -3 90 -15z m148 -77 c3 -17 -13 -18 -237
-18 -194 0 -241 3 -241 13 0 8 3 17 7 21 4 3 110 5 237 4 211 -3 231 -5 234
-20z m-38 -90 c0 -18 -7 -107 -15 -198 -8 -91 -15 -168 -15 -172 0 -5 -76 -8
-170 -8 -93 0 -170 3 -170 8 0 4 -7 81 -15 172 -8 91 -15 180 -15 198 l0 32
200 0 200 0 0 -32z"/>
        <path d="M194 293 c10 -173 16 -213 32 -213 16 0 17 84 6 240 -6 72 -10 85
-26 88 -18 4 -18 -2 -12 -115z"/>
        <path d="M305 398 c-3 -8 -4 -81 -3 -163 3 -125 5 -150 18 -150 13 0 15 24 15
159 0 119 -3 160 -12 163 -7 3 -15 -2 -18 -9z"/>
        <path d="M416 402 c-2 -4 -8 -78 -12 -165 -6 -138 -5 -157 9 -157 18 0 23 35
33 213 6 102 4 117 -9 117 -9 0 -18 -4 -21 -8z"/>
    </g>
</svg>
