<?xml version="1.0" standalone="no"?>
<!DOCTYPE svg PUBLIC "-//W3C//DTD SVG 20010904//EN"
        "http://www.w3.org/TR/2001/REC-SVG-20010904/DTD/svg10.dtd">
<svg version="1.0" xmlns="http://www.w3.org/2000/svg"
     width="64.000000pt" height="64.000000pt" viewBox="0 0 64.000000 64.000000"
     preserveAspectRatio="xMidYMid meet">

    <g transform="translate(0.000000,64.000000) scale(0.100000,-0.100000)"
       fill="#2f2f2f" stroke="none">
        <path d="M223 622 c-109 -39 -178 -112 -210 -221 -29 -102 4 -228 82 -306 122
-121 328 -121 450 0 91 92 118 241 64 356 -69 146 -241 223 -386 171z m199
-42 c185 -70 237 -314 96 -457 -139 -142 -389 -90 -458 95 -86 229 134 449
362 362z"/>
        <path d="M160 417 c-30 -15 -34 -44 -5 -39 30 6 58 6 74 1 27 -7 23 27 -4 39
-32 15 -34 15 -65 -1z"/>
        <path d="M413 418 c-39 -19 -27 -54 12 -36 16 7 29 7 45 -2 29 -16 52 3 30 24
-21 21 -61 27 -87 14z"/>
        <path d="M141 296 c-21 -26 5 -96 54 -142 48 -46 96 -61 166 -49 55 10 123 74
139 133 18 70 14 72 -180 72 -133 0 -170 -3 -179 -14z m323 -48 c-45 -143
-243 -143 -288 0 l-7 22 151 0 151 0 -7 -22z"/>
    </g>
</svg>
