<?xml version="1.0" standalone="no"?>
<!DOCTYPE svg PUBLIC "-//W3C//DTD SVG 20010904//EN"
 "http://www.w3.org/TR/2001/REC-SVG-20010904/DTD/svg10.dtd">
<svg version="1.0" xmlns="http://www.w3.org/2000/svg"
 width="64.000000pt" height="64.000000pt" viewBox="0 0 64.000000 64.000000"
 preserveAspectRatio="xMidYMid meet">

<g transform="translate(0.000000,64.000000) scale(0.100000,-0.100000)"
fill="#000000" stroke="none">
<path d="M204 609 c-71 -27 -137 -88 -171 -157 -24 -49 -28 -69 -28 -142 1
-72 5 -93 27 -135 31 -59 89 -120 140 -146 55 -28 68 -25 68 16 0 33 -2 35
-35 35 -35 0 -42 5 -90 66 -44 57 -24 61 35 8 44 -40 74 -42 97 -7 14 21 13
22 -24 32 -40 11 -71 37 -92 78 -15 29 -14 116 1 131 7 7 13 32 13 57 1 25 5
48 8 52 4 3 26 -1 49 -9 52 -18 198 -17 245 3 18 7 35 10 39 6 4 -4 8 -27 9
-52 0 -25 6 -50 13 -57 15 -15 16 -102 1 -131 -21 -40 -52 -67 -91 -78 -33 -9
-37 -12 -28 -29 5 -10 10 -46 10 -79 0 -69 7 -73 68 -42 51 26 109 87 140 146
22 42 26 63 27 135 0 73 -4 93 -28 142 -72 146 -250 216 -403 157z"/>
</g>
</svg>
