<?xml version="1.0" standalone="no"?>
<!DOCTYPE svg PUBLIC "-//W3C//DTD SVG 20010904//EN"
        "http://www.w3.org/TR/2001/REC-SVG-20010904/DTD/svg10.dtd">
<svg version="1.0" xmlns="http://www.w3.org/2000/svg"
     width="32.000000pt" height="32.000000pt" viewBox="0 0 32.000000 32.000000"
     preserveAspectRatio="xMidYMid meet">

    <g transform="translate(0.000000,32.000000) scale(0.100000,-0.100000)"
       fill="#2f2f2f" stroke="none">
        <path d="M250 265 c-9 -11 -25 -13 -65 -9 -64 8 -132 -20 -165 -67 -20 -27
-20 -30 -4 -54 9 -14 26 -30 36 -36 19 -10 19 -11 2 -30 -9 -10 -14 -22 -10
-26 7 -7 236 215 236 229 0 13 -17 9 -30 -7z m-50 -40 c-3 -5 -17 -9 -32 -7
-38 4 -72 -31 -64 -68 8 -42 -14 -56 -48 -29 -43 34 -32 65 39 103 32 17 113
18 105 1z m-46 -56 c-23 -24 -30 -27 -32 -14 -5 22 16 45 41 45 19 0 18 -2 -9
-31z"/>
        <path d="M260 211 c0 -5 7 -14 15 -21 8 -7 15 -20 15 -30 0 -34 -77 -80 -135
-80 -19 0 -35 -4 -35 -10 0 -17 72 -11 117 11 23 11 52 34 64 50 l20 29 -21
30 c-21 29 -40 39 -40 21z"/>
        <path d="M182 134 c-22 -23 -28 -34 -17 -34 19 0 55 35 55 55 0 19 1 20 -38
-21z"/>
    </g>
</svg>
