<?xml version="1.0" standalone="no"?>
<!DOCTYPE svg PUBLIC "-//W3C//DTD SVG 20010904//EN"
        "http://www.w3.org/TR/2001/REC-SVG-20010904/DTD/svg10.dtd">
<svg version="1.0" xmlns="http://www.w3.org/2000/svg"
     width="32.000000pt" height="32.000000pt" viewBox="0 0 32.000000 32.000000"
     preserveAspectRatio="xMidYMid meet">

    <g transform="translate(0.000000,32.000000) scale(0.100000,-0.100000)"
       fill="#2f2f2f" stroke="none">
        <path d="M82 239 c-23 -12 -51 -34 -63 -50 l-20 -29 20 -29 c26 -36 96 -71
141 -71 45 0 115 35 141 71 l20 29 -20 29 c-26 36 -96 71 -142 71 -19 0 -53
-10 -77 -21z m152 -22 c50 -28 65 -51 50 -74 -17 -28 -86 -63 -124 -63 -38 0
-107 35 -124 63 -8 12 -8 22 0 35 17 27 86 62 124 62 19 0 53 -10 74 -23z"/>
        <path d="M120 200 c-11 -11 -20 -29 -20 -40 0 -26 34 -60 60 -60 26 0 60 34
60 60 0 11 -9 29 -20 40 -11 11 -29 20 -40 20 -11 0 -29 -9 -40 -20z m70 -15
c26 -32 -13 -81 -47 -59 -23 14 -28 41 -13 59 16 19 44 19 60 0z"/>
    </g>
</svg>
